<svg width="23" height="23" viewBox="0 0 23 23" fill="none" xmlns="http://www.w3.org/2000/svg">
<mask id="mask0_6959_65" style="mask-type:alpha" maskUnits="userSpaceOnUse" x="0" y="0" width="23" height="23">
<g clip-path="url(#clip0_6959_65)">
<path d="M18.1781 14.2479C17.7072 13.7576 17.1393 13.4955 16.5373 13.4955C15.9403 13.4955 15.3675 13.7527 14.8772 14.243L13.3432 15.7721C13.217 15.7042 13.0908 15.6411 12.9694 15.578C12.7947 15.4906 12.6296 15.4081 12.4889 15.3207C11.052 14.4081 9.74617 13.2188 8.49376 11.6799C7.88697 10.913 7.47921 10.2673 7.18309 9.61201C7.58115 9.24794 7.95008 8.86931 8.30929 8.50523C8.44522 8.36931 8.58113 8.22854 8.71706 8.09262C9.73646 7.07321 9.73646 5.75284 8.71706 4.73344L7.39183 3.40821C7.24135 3.25773 7.08601 3.10239 6.94038 2.94705C6.64912 2.64608 6.3433 2.33541 6.02777 2.04415C5.5569 1.57814 4.9938 1.33057 4.40158 1.33057C3.80935 1.33057 3.23654 1.57814 2.75111 2.04415C2.74626 2.049 2.74626 2.049 2.7414 2.05386L1.09094 3.71889C0.469586 4.34024 0.115222 5.09751 0.0375529 5.97614C-0.0789505 7.3936 0.33852 8.71397 0.658904 9.57803C1.4453 11.6994 2.62004 13.6654 4.37245 15.7721C6.49864 18.3109 9.05686 20.3158 11.9792 21.7284C13.0956 22.2575 14.5859 22.8837 16.2509 22.9905C16.3529 22.9953 16.4597 23.0002 16.5568 23.0002C17.6781 23.0002 18.6198 22.5973 19.3577 21.7963C19.3626 21.7866 19.3723 21.7818 19.3771 21.7721C19.6295 21.4662 19.9208 21.1895 20.2266 20.8934C20.4354 20.6944 20.6489 20.4857 20.8577 20.2672C21.3383 19.7672 21.5907 19.1847 21.5907 18.5876C21.5907 17.9857 21.3334 17.408 20.8431 16.9226L18.1781 14.2479ZM19.9159 19.3595C19.9111 19.3595 19.9111 19.3643 19.9159 19.3595C19.7266 19.5633 19.5325 19.7478 19.3237 19.9517C19.0082 20.2527 18.6878 20.5682 18.3868 20.9226C17.8966 21.4468 17.3189 21.6944 16.5616 21.6944C16.4888 21.6944 16.4111 21.6944 16.3383 21.6895C14.8966 21.5973 13.5568 21.0342 12.552 20.5536C9.80442 19.2235 7.39183 17.3352 5.387 14.942C3.73168 12.9469 2.6249 11.1023 1.8919 9.12173C1.44045 7.91301 1.2754 6.97127 1.34822 6.08293C1.39676 5.51498 1.6152 5.04411 2.01811 4.6412L3.67343 2.98589C3.91129 2.76259 4.16371 2.64123 4.41128 2.64123C4.71711 2.64123 4.96468 2.82569 5.12001 2.98103C5.12487 2.98589 5.12972 2.99074 5.13458 2.99559C5.43069 3.27229 5.71224 3.55869 6.00835 3.86452C6.15884 4.01985 6.31417 4.17519 6.46951 4.33538L7.79474 5.66061C8.30929 6.17517 8.30929 6.65089 7.79474 7.16544C7.65396 7.30622 7.51804 7.44699 7.37727 7.58291C6.9695 8.00038 6.58116 8.38873 6.15884 8.76736C6.14913 8.77707 6.13942 8.78193 6.13456 8.79164C5.71709 9.20911 5.79476 9.61687 5.88214 9.89356C5.88699 9.90813 5.89185 9.92269 5.8967 9.93725C6.24136 10.7722 6.72679 11.5586 7.46464 12.4955L7.4695 12.5003C8.80929 14.1508 10.2219 15.4372 11.7801 16.4226C11.9792 16.5488 12.183 16.6508 12.3772 16.7478C12.552 16.8352 12.717 16.9177 12.8578 17.0051C12.8772 17.0148 12.8966 17.0294 12.916 17.0391C13.0811 17.1216 13.2364 17.1605 13.3966 17.1605C13.7995 17.1605 14.0519 16.908 14.1345 16.8255L15.7946 15.1653C15.9597 15.0003 16.2218 14.8013 16.5276 14.8013C16.8286 14.8013 17.0762 14.9906 17.2267 15.1556C17.2315 15.1605 17.2315 15.1605 17.2364 15.1653L19.9111 17.8401C20.4111 18.3352 20.4111 18.8449 19.9159 19.3595Z" fill="black"/>
<path d="M12.43 5.47092C13.7019 5.68451 14.8572 6.28644 15.7795 7.20876C16.7018 8.13108 17.2989 9.2864 17.5174 10.5582C17.5708 10.8786 17.8475 11.1019 18.163 11.1019C18.2018 11.1019 18.2358 11.0971 18.2746 11.0922C18.6339 11.034 18.8717 10.6942 18.8135 10.3349C18.5513 8.79612 17.8232 7.39322 16.7115 6.28159C15.5999 5.16995 14.197 4.4418 12.6582 4.17967C12.299 4.12142 11.964 4.35928 11.9009 4.71365C11.8378 5.06801 12.0708 5.41267 12.43 5.47092Z" fill="black"/>
<path d="M22.9751 10.1458C22.5431 7.61184 21.3489 5.30604 19.514 3.47111C17.6791 1.63618 15.3733 0.442024 12.8393 0.00999088C12.4849 -0.0531151 12.15 0.1896 12.0869 0.543965C12.0286 0.903184 12.2665 1.23813 12.6257 1.30124C14.8878 1.68473 16.9509 2.75753 18.5917 4.39343C20.2324 6.03419 21.3004 8.09727 21.6839 10.3594C21.7373 10.6798 22.0139 10.9031 22.3295 10.9031C22.3683 10.9031 22.4023 10.8982 22.4411 10.8933C22.7955 10.84 23.0382 10.5002 22.9751 10.1458Z" fill="black"/>
</g>
</mask>
<g mask="url(#mask0_6959_65)">
<rect x="-9.06055" y="-81.5454" width="130.333" height="120.576" fill="white"/>
</g>
<defs>
<clipPath id="clip0_6959_65">
<rect width="23" height="23" fill="white"/>
</clipPath>
</defs>
</svg>
